HIERARCHY
ROOT ground_pelvis
{
  OFFSET 0.0 0.0 0.0
  CHANNELS 6 XPOSITION YPOSITION ZPOSITION ZROTATION XROTATION YROTATION 
  JOINT hip_r
  {
    OFFSET -0.0707 -0.0661 0.0835
    CHANNELS 3 ZROTATION XROTATION YROTATION 
    JOINT knee_r
    {
      OFFSET 0.0 -0.396 0.0
      CHANNELS 3 ZROTATION XROTATION YROTATION 
      JOINT ankle_r
      {
        OFFSET 0.0 -0.43 0.0
        CHANNELS 3 ZROTATION XROTATION YROTATION 
        JOINT mtp_r
        {
          OFFSET 0.13003 -0.04395 0.009
          CHANNELS 3 ZROTATION XROTATION YROTATION 
          End Site
          {
            OFFSET 0.0692 0.012 -0.035
          }
        }
      }
    }
  }
  JOINT hip_l
  {
    OFFSET -0.0707 -0.0661 -0.0835
    CHANNELS 3 ZROTATION XROTATION YROTATION 
    JOINT knee_l
    {
      OFFSET 0.0 -0.396 0.0
      CHANNELS 3 ZROTATION XROTATION YROTATION 
      JOINT ankle_l
      {
        OFFSET 0.0 -0.43 0.0
        CHANNELS 3 ZROTATION XROTATION YROTATION 
        JOINT mtp_l
        {
          OFFSET 0.13003 -0.04395 -0.009
          CHANNELS 3 ZROTATION XROTATION YROTATION 
          End Site
          {
            OFFSET 0.0692 0.012 0.035
          }
        }
      }
    }
  }
  JOINT back
  {
    OFFSET -0.1007 0.0815 0.0
    CHANNELS 3 ZROTATION XROTATION YROTATION 
    JOINT shoulder_r
    {
      OFFSET 0.0031 0.3715 0.17
      CHANNELS 3 ZROTATION XROTATION YROTATION 
      JOINT elbow_r
      {
        OFFSET 0.0061 -0.2904 -0.0123
        CHANNELS 3 ZROTATION XROTATION YROTATION 
        JOINT radioulnar_r
        {
          OFFSET 0.0004 -0.011503 0.019999
          CHANNELS 3 ZROTATION XROTATION YROTATION 
          JOINT radius_hand_r
          {
            OFFSET 0.018 -0.242 0.025
            CHANNELS 3 ZROTATION XROTATION YROTATION 
            End Site
            {
              OFFSET 0.0 -0.13619 0.0
            }
          }
        }
      }
    }
    JOINT shoulder_l
    {
      OFFSET 0.0031 0.3715 -0.17
      CHANNELS 3 ZROTATION XROTATION YROTATION 
      JOINT elbow_l
      {
        OFFSET 0.0061 -0.2904 0.0123
        CHANNELS 3 ZROTATION XROTATION YROTATION 
        JOINT radioulnar_l
        {
          OFFSET 0.0004 -0.011503 -0.019999
          CHANNELS 3 ZROTATION XROTATION YROTATION 
          JOINT radius_hand_l
          {
            OFFSET 0.018 -0.242 -0.025
            CHANNELS 3 ZROTATION XROTATION YROTATION 
            End Site
            {
              OFFSET 0.0 -0.13619 0.0
            }
          }
        }
      }
    }
  }
}
MOTION
Frames: 15
Frame Time: 0.033333
0.753347545284 0.884870858766 0.055354284166 -9.73890975165 -2.85740003432 173.088003833 7.67551131094 -6.33538422644 2.50681923083 -79.6932607073 -1.39156150388 -1.16461267389 7.49699577925 -0.940574891875 -14.2820758187 -0 0.0 -0 8.62182804403 -8.92686173104 6.70751555742 -37.6604507249 0.459666234974 0.139141518842 20.7689301621 3.51345656613 19.0024861484 -0 0.0 -0 -14.6483652035 -7.0058151048 0.747530587321 -7.36203721766 -12.1269393997 -1.23150317103 -0 0.0 -0 10.1891344774 15.0946395186 0.836995606721 -0 0.0 -0 -6.50661109252 16.7206941165 1.48209971675 -0 0.0 -0 17.0392251111 -14.5244860625 -0.673340912473 -0 0.0 -0 
0.727308740558 0.888394551688 0.0572622575109 -9.9221697035 -2.2799399834 173.372699778 13.458210717 -4.98643894084 2.87981180598 -81.7100721352 -1.39960213064 -1.21373742212 9.09127121455 -1.19041115216 -14.8893052491 -0 0.0 -0 5.5181405663 -8.47183538231 7.01896407273 -35.8828359368 0.440970459751 0.125169299678 21.6410496965 3.44165911168 17.8659956045 -0 0.0 -0 -15.1358272668 -6.2332421625 -0.838137262168 -7.56465392562 -12.1939247724 -1.2642258603 -0 0.0 -0 12.0513368895 14.967978783 0.784729878614 -0 0.0 -0 -4.6535935773 17.3541053696 1.20216964298 -0 0.0 -0 19.2534272985 -14.1950429869 -0.649225915752 -0 0.0 -0 
0.701801940292 0.891142917463 0.0587520053317 -10.0679003272 -1.63789996026 173.587796095 18.6749222286 -3.51096183954 3.05670516775 -81.2163450809 -1.39779351789 -1.20168566005 10.9761430245 -1.45961910959 -15.1046064721 -0 0.0 -0 2.46853900874 -7.89782969956 7.37887107264 -34.1183146213 0.421992539018 0.111880152791 22.5500437146 3.37244581661 16.7993095939 -0 0.0 -0 -15.7310048284 -5.25988214916 -2.0124648663 -7.05072317171 -12.1873823049 -1.19537990134 -0 0.0 -0 13.3154367115 14.8099811396 0.754715626162 -0 0.0 -0 -2.74872083901 18.0967176871 0.897622820393 -0 0.0 -0 22.0752670201 -13.7796138061 -0.636830296348 -0 0.0 -0 
0.676811188532 0.892564845775 0.0599056037802 -10.2316993625 -1.08501994589 173.778399354 23.0859745078 -2.34313203982 2.8418099141 -78.5384054923 -1.38618059547 -1.13662042424 13.3006997246 -1.81379280603 -15.4631623752 -0 0.0 -0 -0.411160019077 -7.46884088571 7.57135263364 -32.6253821178 0.405622336486 0.101097238433 23.5627404949 3.36893403216 16.0512587382 -0 0.0 -0 -16.2579488003 -4.3751280455 -2.77307643982 -6.25067664724 -12.12185347 -1.08418186033 -0 0.0 -0 14.0972585837 14.6218367487 0.742426675102 -0 0.0 -0 -0.941355667875 18.8896633761 0.588629704736 -0 0.0 -0 25.0140805615 -13.40853902 -0.637086214998 -0 0.0 -0 
0.651894056894 0.893167575969 0.0609198623808 -10.3474002058 -0.771057974329 174.125700813 26.7352045625 -1.73507402208 2.02941504794 -74.2764357521 -1.36146971811 -1.03439063505 15.0744563096 -2.16735114512 -16.2721077824 -0 0.0 -0 -3.11917002247 -7.33466608834 7.40164633843 -31.1737278626 0.389440497764 0.0910248571816 24.2150116078 3.35815898186 15.5625006465 -0 0.0 -0 -16.5158499131 -3.66395893072 -3.32259055831 -5.48739660419 -11.9519567833 -0.97155598962 -0 0.0 -0 14.5997171811 14.4657686337 0.737822967519 -0 0.0 -0 0.717961684547 19.6287991274 0.282994774314 -0 0.0 -0 27.6892914896 -13.1041328567 -0.648561199608 -0 0.0 -0 
0.627139340725 0.893257902693 0.061856396875 -10.3852001802 -0.592827069424 174.569198656 29.7222614375 -1.42935080612 0.826009674327 -69.0310758657 -1.32074162025 -0.911539330827 16.1612213688 -2.40694500313 -16.8335527473 -0 0.0 -0 -5.8004549097 -7.38226994553 6.89440788925 -29.4774572124 0.370215836448 0.0797791107957 24.5459240278 3.35778566933 15.3471806405 -0 0.0 -0 -16.6218612792 -2.97210174893 -3.59667687164 -4.82834610165 -11.6976270056 -0.869328975199 -0 0.0 -0 14.9317292616 14.39558844 0.733671546525 -0 0.0 -0 2.37359553729 20.2586518519 -0.0436642421004 -0 0.0 -0 29.8570415604 -13.0181954165 -0.637674945288 -0 0.0 -0 
0.602095236113 0.891597951589 0.0624975379315 -10.4677003276 -0.515249994274 174.829797694 31.8994286317 -1.21527357435 -0.276565671995 -63.1955329936 -1.26245321276 -0.779888181627 17.211806916 -2.47361106453 -16.2375845912 -0 0.0 -0 -8.56058088397 -7.60469761717 6.32800932968 -27.7754696939 0.350600253523 0.0690723890653 25.2058312922 3.46849705936 15.4243634856 -0 0.0 -0 -16.7226919469 -2.48977790885 -3.40768788518 -4.25402537642 -11.4991169489 -0.784068684286 -0 0.0 -0 15.1032336041 14.444023019 0.726725030696 -0 0.0 -0 4.04235610649 20.7088398653 -0.389131618467 -0 0.0 -0 31.3421876482 -13.2210836245 -0.578058119365 -0 0.0 -0 
0.575563334578 0.888028292888 0.0628460744752 -10.641600359 -0.647863986704 174.973996648 33.0679613006 -1.23222215517 -1.24089169293 -56.9433690727 -1.18550408813 -0.646204090653 18.5038447729 -2.44930370193 -14.9529472442 -0 0.0 -0 -11.4825400798 -8.0229280293 5.91657837088 -26.1393952084 0.331452405154 0.0593338199694 26.1582533607 3.61300657328 15.4622590827 -0 0.0 -0 -16.6159736562 -2.33931631195 -2.98311414831 -3.89360440477 -11.4699520411 -0.736934776123 -0 0.0 -0 15.1533552398 14.6448852221 0.713627502632 -0 0.0 -0 5.39665839484 20.8988335299 -0.674869380744 -0 0.0 -0 32.0378458303 -13.6640760337 -0.473943731578 -0 0.0 -0 
0.547231523583 0.88415263587 0.0630500607087 -10.7125002839 -0.974405992773 175.373303167 33.4518042715 -1.59817301872 -2.51069237498 -50.5582145384 -1.09236944288 -0.51915563518 19.8727990977 -2.53014219241 -14.3694339381 -0 0.0 -0 -14.5338826952 -8.43589919576 5.49072034499 -24.2318719298 0.30878746293 0.0486752797541 26.6419161313 3.62523133124 15.2256647449 -0 0.0 -0 -16.045997785 -2.21543717098 -2.72657629851 -3.94456444616 -11.589965295 -0.750107276185 -0 0.0 -0 15.1785910812 14.9653252545 0.693928063127 -0 0.0 -0 6.20254174284 20.856192659 -0.841959393339 -0 0.0 -0 31.8647449311 -14.3677690795 -0.327813034904 -0 0.0 -0 
0.51700630993 0.880099802263 0.0628738824967 -10.5401003328 -1.33177984628 176.060898311 33.5372533531 -2.12349492734 -4.09121543783 -44.9092860948 -0.998631072934 -0.415999394867 21.2849475388 -2.76480337319 -14.6360093913 -0 0.0 -0 -17.6038034253 -8.6708158683 4.8131502114 -22.0765032844 0.282767030194 0.0375473741417 26.6180497428 3.55729955041 14.9571614709 -0 0.0 -0 -15.082288829 -1.97645226701 -2.60932180069 -4.28960340492 -11.7938737625 -0.806042576784 -0 0.0 -0 15.1571989287 15.2663965781 0.676698217255 -0 0.0 -0 6.67199174355 20.6719841646 -0.933059442632 -0 0.0 -0 30.7718190412 -15.4323445617 -0.138985571749 -0 0.0 -0 
0.484030141953 0.874508970194 0.0620147722989 -10.2435002219 -1.66997997141 176.754695266 33.4112261177 -2.55484442532 -5.2952936918 -41.0441605906 -0.92884308148 -0.350964894911 22.865912643 -2.95284552467 -14.5260535909 -0 0.0 -0 -20.7277048478 -8.77266679543 3.99205261703 -20.0117678341 0.257464967939 0.0278123385347 26.6496120469 3.53137748841 14.8312896223 -0 0.0 -0 -13.9555697244 -1.80452466622 -2.41941095214 -4.58388808172 -12.0537223331 -0.86006441056 -0 0.0 -0 14.8871981357 15.4044842201 0.677433156282 -0 0.0 -0 6.96339664185 20.3566804344 -0.980782828137 -0 0.0 -0 28.8435029593 -16.7316309569 0.0357367303464 -0 0.0 -0 
0.448163659116 0.867709099578 0.060629542355 -9.88343996959 -2.05576015479 177.512600377 32.7058827274 -2.81841865062 -5.67835289857 -39.0916622239 -0.891961340623 -0.319938947369 24.1277559412 -2.95304573459 -13.7538528939 -0 0.0 -0 -23.9044343685 -8.7030313093 3.15290966287 -18.0901641206 0.233615734946 0.0195765844789 26.4776244685 3.45627699716 14.6158193521 -0 0.0 -0 -12.7407403258 -1.64424296484 -2.36051892669 -4.76405523854 -12.3421014576 -0.902025517643 -0 0.0 -0 14.2550376611 15.3401028569 0.701628461086 -0 0.0 -0 6.83251997207 19.8795012208 -0.935461214621 -0 0.0 -0 26.2666535854 -17.9292380335 0.111004614587 -0 0.0 -0 
0.410325175161 0.861656933039 0.058959367408 -9.31606896184 -2.25955997957 178.634595552 31.4908740363 -2.70005061853 -5.82004602668 -38.453019046 -0.879670628655 -0.310065535398 23.6519171523 -2.82298014977 -13.4233169881 -0 0.0 -0 -26.9185183021 -8.10326556809 2.10257021593 -16.2069443626 0.209987749389 0.0122856843752 25.3066039033 3.24204854073 14.3690394947 -0 0.0 -0 -11.4483421764 -1.01269923491 -2.65290438401 -4.96844438058 -12.6125769487 -0.947046175949 -0 0.0 -0 13.382747372 15.1143582747 0.73970431111 -0 0.0 -0 6.16071964078 19.2712865356 -0.781050967972 -0 0.0 -0 23.1773539012 -18.7965439921 0.0512320016543 -0 0.0 -0 
0.37124745991 0.857338727729 0.0563127092729 -8.62950005402 -1.5505700153 179.448194026 30.4206004688 -1.63058589487 -6.32132556269 -38.9421425528 -0.889093675028 -0.317615108906 20.3604968026 -2.54905306523 -14.1254766565 -0 0.0 -0 -29.5873003146 -6.65436515974 1.34801221773 -14.6862744609 0.190741717051 0.00696756210008 23.2331104429 2.99420167976 14.4908217676 -0 0.0 -0 -10.36122707 0.656172111417 -2.78711439955 -5.04630042627 -12.8791763075 -0.975262434462 -0 0.0 -0 12.2954358976 14.8114786586 0.782859047111 -0 0.0 -0 5.04486224456 18.5381528131 -0.547152473866 -0 0.0 -0 19.8187518108 -19.2015110306 -0.124149693841 -0 0.0 -0 
0.331126334201 0.853745884553 0.0533419968651 -8.22481988343 -5.01881019637e-16 179.999991349 29.9345437169 0.596755975662 -6.8953846063 -40.912819468 -0.92639552588 -0.348838571645 15.6491091527 -2.0554017833 -14.8746169273 -0 0.0 -0 -31.0688673833 -4.62942025716 2.17452220342 -15.8859527924 0.205937047005 0.0111206026794 21.276957925 2.82609685047 14.9626580657 -0 0.0 -0 -9.86143310008 3.19842647038 -2.14121051706 -4.51288100822 -13.2446289941 -0.923818623572 -0 0.0 -0 10.7304030635 14.5784974909 0.830586754845 -0 0.0 -0 3.19258025534 17.5602216957 -0.192731636637 -0 0.0 -0 16.9217748857 -19.0374242736 -0.333982696757 -0 0.0 -0 
